:SAMPLES-PER-SECOND 30
:FULLY-SPECIFIED
:DEGREES
1
root  73.2084 40.3388 -3.75918 -173.029 -88.9171 171.546
RightUpLeg  0.0974092 -9.68381 -8.64763
RightLeg  3.80202 -2.61757 3.40519
RightFoot  -0.199758 -0.26425 2.61754
RightToes  2.91037e-010 0 -3.6325e-017
Spine  3.88866 0.68096 -1.99196
Spine1  0.485347 0.0676125 3.20574
HEad  -2.92176 0.457941 -0.182533
LeftShoulder1  0.959511 -2.65183 -8.0155
LeftArm  -20.7474 12.6138 -11.2889
LeftForeArm  8.12122 0.701382 0.0775656
LeftHand  -0.244104 0.0205437 5.32207
RightShoulder  0.549002 0.492437 6.0316
RightArm  -23.1764 -5.66697 5.5138
RightForeArm  4.96948 0.727962 1.40095
RightHand  -0.647956 1.30849 -11.4232
LeftUpLeg  4.53985 7.51609 7.71017
LeftLeg  1.98247 18.3886 -3.25976
LeftFoot  -2.49438 0.419142 -5.24038
LeftToes  1.46425e-010 1.43544e-010 6.23391e-011
2
root  73.2058 40.3388 -3.75843 -173.408 -88.9001 171.921
RightUpLeg  0.104645 -9.67143 -8.64269
RightLeg  3.80046 -2.62696 3.39436
RightFoot  -0.21732 -0.26842 2.68225
RightToes  2.91037e-010 0 -3.6325e-017
Spine  3.85335 0.667741 -1.90411
Spine1  0.593007 0.0834292 3.04456
HEad  -3.00531 0.412895 -0.183956
LeftShoulder1  0.939822 -2.59171 -7.82569
LeftArm  -20.8317 12.5487 -11.4534
LeftForeArm  8.22717 0.763247 0.110149
LeftHand  -0.244104 0.0205437 5.32207
RightShoulder  0.554405 0.493935 6.1774
RightArm  -23.2319 -5.6217 5.46653
RightForeArm  4.95703 0.722311 1.38359
RightHand  -0.646069 1.26445 -11.4675
LeftUpLeg  4.55823 7.52352 7.72013
LeftLeg  1.97277 18.3876 -3.26813
LeftFoot  -2.49441 0.419409 -5.24455
LeftToes  1.46425e-010 1.43544e-010 6.23391e-011
3
root  73.2004 40.3388 -3.75485 -174.261 -88.8752 172.789
RightUpLeg  0.115629 -9.6527 -8.6319
RightLeg  3.75496 -2.62041 3.38873
RightFoot  -0.216904 -0.275169 2.78695
RightToes  2.91037e-010 0 -3.6325e-017
Spine  3.58776 0.616547 -1.75418
Spine1  1.06242 0.069925 2.8052
HEad  -3.25183 0.376586 -0.150049
LeftShoulder1  0.920753 -2.53653 -7.63034
LeftArm  -20.9963 12.5007 -11.6204
LeftForeArm  8.26798 0.805108 0.174519
LeftHand  -0.244104 0.0205437 5.32207
RightShoulder  0.56561 0.53709 6.32335
RightArm  -23.3529 -5.51575 5.47161
RightForeArm  4.88709 0.69304 1.35428
RightHand  -0.644123 1.20623 -11.5096
LeftUpLeg  4.55706 7.52919 7.72863
LeftLeg  1.97315 18.4011 -3.26592
LeftFoot  -2.49538 0.420401 -5.26002
LeftToes  1.46425e-010 1.43544e-010 6.23391e-011
4
root  73.193 40.3388 -3.74969 -175.155 -88.8354 173.722
RightUpLeg  0.102989 -9.63075 -8.61287
RightLeg  3.69018 -2.59264 3.38459
RightFoot  -0.190195 -0.279353 2.85133
RightToes  2.91037e-010 0 -3.6325e-017
Spine  3.23203 0.584092 -1.63018
Spine1  1.62398 0.0566818 2.6606
HEad  -3.44577 0.34525 -0.0770541
LeftShoulder1  0.929597 -2.59795 -7.62178
LeftArm  -21.0351 12.559 -11.6012
LeftForeArm  8.07222 0.738036 0.180709
LeftHand  -0.244104 0.0205437 5.32207
RightShoulder  0.562712 0.521357 6.30319
RightArm  -23.4683 -5.39268 5.59889
RightForeArm  4.81946 0.657735 1.33386
RightHand  -0.643491 1.15961 -11.5194
LeftUpLeg  4.53232 7.53503 7.72965
LeftLeg  1.97156 18.4575 -3.26616
LeftFoot  -2.50266 0.419283 -5.24259
LeftToes  1.46425e-010 1.43544e-010 6.23391e-011
5
root  73.1843 40.3388 -3.74483 -175.886 -88.7852 174.5
RightUpLeg  0.068967 -9.60356 -8.58796
RightLeg  3.65066 -2.57317 3.36958
RightFoot  -0.168899 -0.281228 2.87519
RightToes  2.91037e-010 0 -3.6325e-017
Spine  3.14989 0.619377 -1.5489
Spine1  1.766 0.102879 2.59932
HEad  -3.36304 0.262283 -0.0238212
LeftShoulder1  0.945705 -2.70586 -7.61835
LeftArm  -20.8681 12.6632 -11.5437
LeftForeArm  7.78751 0.64276 0.0958581
LeftHand  -0.244104 0.0205437 5.32207
RightShoulder  0.529179 0.298685 6.23157
RightArm  -23.5376 -5.2579 5.74961
RightForeArm  4.93697 0.662093 1.32473
RightHand  -0.648059 1.2045 -11.5312
LeftUpLeg  4.5133 7.54589 7.73216
LeftLeg  1.95681 18.5135 -3.28039
LeftFoot  -2.52264 0.416687 -5.20532
LeftToes  1.46425e-010 1.43544e-010 6.23391e-011
6
root  73.174 40.3388 -3.73893 -176.1 -88.7511 174.75
RightUpLeg  0.0410854 -9.59153 -8.58372
RightLeg  3.64086 -2.56046 3.35815
RightFoot  -0.1684 -0.283299 2.89817
RightToes  2.91037e-010 0 -3.6325e-017
Spine  3.28131 0.659098 -1.49713
Spine1  1.63242 0.154747 2.55064
HEad  -3.16873 0.235396 -0.0433281
LeftShoulder1  0.931857 -2.66501 -7.47885
LeftArm  -20.7202 12.6743 -11.6292
LeftForeArm  7.64999 0.638978 0.0208532
LeftHand  -0.244104 0.0205437 5.32207
RightShoulder  0.485838 -0.0117296 6.22463
RightArm  -23.6355 -5.09603 5.83655
RightForeArm  5.44402 0.692275 1.28745
RightHand  -0.670444 1.46877 -11.4861
LeftUpLeg  4.50392 7.54166 7.72209
LeftLeg  1.94486 18.5398 -3.28502
LeftFoot  -2.54161 0.416978 -5.22371
LeftToes  1.46425e-010 1.43544e-010 6.23391e-011
7
root  73.1614 40.3388 -3.73052 -175.456 -88.7494 174.133
RightUpLeg  0.033916 -9.61732 -8.62123
RightLeg  3.64439 -2.52838 3.37093
RightFoot  -0.179399 -0.285029 2.91323
RightToes  2.91037e-010 0 -3.6325e-017
Spine  3.19344 0.611758 -1.48252
Spine1  1.85435 0.102721 2.54837
HEad  -3.21506 0.435096 -0.0935827
LeftShoulder1  0.889423 -2.40896 -7.40447
LeftArm  -20.7819 12.5428 -11.7658
LeftForeArm  7.6352 0.663852 0.0276444
LeftHand  -0.244104 0.0205437 5.32207
RightShoulder  0.471604 -0.0994923 6.1583
RightArm  -23.8252 -4.96767 5.92009
RightForeArm  6.19218 0.685286 1.19937
RightHand  -0.701283 1.90138 -11.325
LeftUpLeg  4.49045 7.51036 7.68132
LeftLeg  1.94889 18.5681 -3.26645
LeftFoot  -2.54271 0.419886 -5.28426
LeftToes  1.46425e-010 1.43544e-010 6.23391e-011
8
root  73.1469 40.3388 -3.72106 -174.538 -88.7621 173.235
RightUpLeg  0.0385917 -9.661 -8.67262
RightLeg  3.65794 -2.49064 3.39519
RightFoot  -0.201093 -0.284448 2.89105
RightToes  2.91037e-010 0 -3.6325e-017
Spine  2.88202 0.510441 -1.50169
Spine1  2.38538 -0.0268261 2.63348
HEad  -3.45145 0.74332 -0.0873171
LeftShoulder1  0.848737 -2.09947 -7.5132
LeftArm  -20.8914 12.4002 -11.8244
LeftForeArm  7.58493 0.559506 0.0349602
LeftHand  -0.244104 0.0205437 5.32207
RightShoulder  0.493705 0.111152 5.94013
RightArm  -23.9683 -4.99596 6.02473
RightForeArm  6.61812 0.642863 1.12487
RightHand  -0.719747 2.18999 -11.1957
LeftUpLeg  4.48398 7.48581 7.63903
LeftLeg  1.95297 18.5994 -3.25908
LeftFoot  -2.54568 0.419346 -5.29123
LeftToes  1.46425e-010 1.43544e-010 6.23391e-011
9
root  73.132 40.3388 -3.71204 -174.417 -88.7553 173.134
RightUpLeg  0.0345764 -9.68314 -8.69548
RightLeg  3.67636 -2.4772 3.40517
RightFoot  -0.237412 -0.282928 2.85419
RightToes  2.91037e-010 0 -3.6325e-017
Spine  2.83625 0.46252 -1.51858
Spine1  2.47646 -0.0947566 2.7145
HEad  -3.42835 0.870967 -0.027857
LeftShoulder1  0.823925 -1.93635 -7.50667
LeftArm  -20.8399 12.4435 -11.912
LeftForeArm  7.56107 0.377281 -0.0210036
LeftHand  -0.244104 0.0205437 5.32207
RightShoulder  0.525719 0.381107 5.79794
RightArm  -23.8585 -5.18711 5.98706
RightForeArm  6.41912 0.630699 1.14727
RightHand  -0.719043 2.12286 -11.2719
LeftUpLeg  4.49752 7.50089 7.63493
LeftLeg  1.93711 18.5908 -3.29275
LeftFoot  -2.5779 0.415328 -5.2443
LeftToes  1.46425e-010 1.43544e-010 6.23391e-011
10
root  73.1158 40.3388 -3.70167 -174.778 -88.7244 173.541
RightUpLeg  0.0074083 -9.69068 -8.70397
RightLeg  3.67462 -2.46748 3.40943
RightFoot  -0.270256 -0.284019 2.85901
RightToes  2.91037e-010 0 -3.6325e-017
Spine  3.12925 0.471114 -1.52251
Spine1  2.02442 -0.0771372 2.70039
HEad  -2.99954 0.747558 -0.0224249
LeftShoulder1  0.810729 -1.9522 -7.18925
LeftArm  -20.751 12.7008 -12.0978
LeftForeArm  7.70575 0.346788 -0.0400586
LeftHand  -0.244104 0.0205437 5.32207
RightShoulder  0.546825 0.498297 5.9481
RightArm  -23.5714 -5.33121 5.734
RightForeArm  6.03612 0.650204 1.23621
RightHand  -0.713893 1.91376 -11.443
LeftUpLeg  4.50091 7.52897 7.6417
LeftLeg  1.90736 18.5718 -3.34124
LeftFoot  -2.61922 0.412608 -5.21818
LeftToes  1.46425e-010 1.43544e-010 6.23391e-011
11
root  73.095 40.3388 -3.68757 -174.253 -88.7138 173.09
RightUpLeg  -0.020436 -9.7243 -8.74732
RightLeg  3.63356 -2.43231 3.43419
RightFoot  -0.279536 -0.289052 2.92742
RightToes  2.91037e-010 0 -3.6325e-017
Spine  3.22462 0.438256 -1.55028
Spine1  1.85343 -0.105632 2.68193
HEad  -2.57874 0.625898 -0.126433
LeftShoulder1  0.806404 -2.01856 -6.9145
LeftArm  -20.8137 12.9695 -12.1617
LeftForeArm  7.86431 0.499588 0.0501405
LeftHand  -0.244104 0.0205437 5.32207
RightShoulder  0.547558 0.455395 6.13499
RightArm  -23.4446 -5.22626 5.5637
RightForeArm  6.01976 0.632224 1.27644
RightHand  -0.713952 1.88799 -11.489
LeftUpLeg  4.46986 7.52453 7.60426
LeftLeg  1.87758 18.608 -3.36661
LeftFoot  -2.63935 0.410201 -5.19767
LeftToes  1.46425e-010 1.43544e-010 6.23391e-011
12
root  73.0699 40.3388 -3.67057 -172.867 -88.7648 171.763
RightUpLeg  7.59673e-005 -9.78121 -8.82198
RightLeg  3.57224 -2.40566 3.46966
RightFoot  -0.274083 -0.295714 3.02482
RightToes  2.91037e-010 0 -3.6325e-017
Spine  2.92057 0.341449 -1.57789
Spine1  2.32968 -0.227005 2.75034
HEad  -2.4948 0.705003 -0.233063
LeftShoulder1  0.806608 -2.01469 -6.99987
LeftArm  -20.8974 13.0733 -11.964
LeftForeArm  7.75946 0.589385 0.12503
LeftHand  -0.244104 0.0205437 5.32207
RightShoulder  0.521407 0.297747 6.00313
RightArm  -23.5873 -4.95052 5.73843
RightForeArm  6.22296 0.577675 1.24325
RightHand  -0.716243 1.98532 -11.4389
LeftUpLeg  4.44848 7.49098 7.53865
LeftLeg  1.84567 18.6386 -3.37068
LeftFoot  -2.66342 0.406581 -5.15912
LeftToes  1.46425e-010 1.43544e-010 6.23391e-011
13
root  73.0459 40.3388 -3.65293 -172.045 -88.8443 170.949
RightUpLeg  0.0647379 -9.81529 -8.87437
RightLeg  3.53483 -2.42382 3.48074
RightFoot  -0.272247 -0.299615 3.08435
RightToes  2.91037e-010 0 -3.6325e-017
Spine  2.69394 0.269249 -1.49806
Spine1  2.78194 -0.31305 2.76943
HEad  -2.5114 0.837454 -0.239388
LeftShoulder1  0.809365 -1.97981 -7.14474
LeftArm  -20.817 13.1121 -11.7481
LeftForeArm  7.4774 0.476958 0.0768556
LeftHand  -0.244104 0.0205437 5.32207
RightShoulder  0.484207 0.0886614 5.73844
RightArm  -23.698 -4.80629 5.96411
RightForeArm  6.17672 0.580145 1.23206
RightHand  -0.706901 1.90169 -11.413
LeftUpLeg  4.47749 7.46122 7.50153
LeftLeg  1.81844 18.57 -3.36803
LeftFoot  -2.72423 0.407732 -5.19608
LeftToes  1.46425e-010 1.43544e-010 6.23391e-011
